<svg xmlns="http://www.w3.org/2000/svg" xmlns:xlink="http://www.w3.org/1999/xlink" version="1.1" x="0px" y="0px" viewBox="0 0 128 160" enable-background="new 0 0 128 128" xml:space="preserve"><path fill="white" d="M64.809,61.178l-0.585,0.475c0.396,0.451,0.855,0.694,1.333,0.694c0.409,0,0.839-0.176,1.255-0.512  c-0.477-0.273-0.948-0.515-1.482-0.648C65.045,61.115,64.938,61.093,64.809,61.178z"/><path fill="white" d="M74.949,58.415c-0.755-0.266-1.753-0.479-2.773-0.519l-0.009,2.551C72.971,60.156,74.009,59.581,74.949,58.415z"/><path fill="white" d="M64.826,69c-2.143,2-2.859,6.105-3.213,9.272c0.964,0.025,1.922-0.203,2.864-0.15c1.376,0.079,2.809,0.142,4.191,0.126  c0.406-0.004,0.806,0.02,1.206-0.013C68.867,74.457,67.377,71,65.224,69H64.826z"/><path fill="white" d="M69.92,60.792c0.332,0,0.59-0.018,0.746-0.03l0.01-2.775c-1.544,0.271-2.473,1.113-2.748,2.533  C68.458,60.696,69.146,60.792,69.92,60.792z"/><path fill="white" d="M72.313,79.643c-0.758-0.118-1.494-0.056-2.272,0.01c-0.45,0.038-0.899,0.075-1.355,0.08  c-1.438,0.019-2.891-0.065-4.294-0.146c-2.075-0.117-4.221-0.239-6.312-0.033l-0.302,0.028c-1.503,0.14-2.303,0.266-2.629,1.405  l-0.125,0.426c-0.162,0.546-0.334,1.14-0.404,1.687c2.621,0.162,5.129,0.18,7.649,0.046c0.752-0.039,1.504-0.084,2.257-0.129  c2.996-0.178,6.098-0.361,9.173-0.235l0.324,0.013c0.374,0.015,0.753,0.032,1.133,0.053c0.009-0.684-0.178-1.316-0.559-1.854  C74.089,80.272,73.278,79.793,72.313,79.643z"/><path fill="white" d="M77.728,88.017c0.299-0.173,0.65-0.31,1.062-0.387c0.309-0.057,0.516-0.102,0.547-0.185  c0.043-0.119,0.006-0.605-0.389-1.334c-0.458-0.847-1.045-1.378-1.293-1.437c-1.199-0.284-2.409-0.332-3.691-0.382l-0.326-0.013  c-3.004-0.125-6.063,0.059-9.023,0.233c-0.756,0.045-1.511,0.09-2.266,0.13c-2.68,0.141-5.34,0.121-8.133-0.062  c-0.305-0.021-0.614-0.035-0.922-0.035c-0.754,0-1.501,0.088-2.162,0.396c-0.635,0.297-0.714,0.889-0.8,1.91l-0.033,0.369  c-0.048,0.487,0.111,0.91,0.438,1.161c0.315,0.243,0.733,0.115,1.179-0.052C52.377,88.157,52.79,88,53.119,88h0.176  c0.502,0,1.005,0.172,1.51,0.176c0.969,0.006,1.937,0.097,2.904,0.07c0.944-0.028,1.889-0.036,2.832-0.084  c1.043-0.055,2.086-0.088,3.13-0.115c1.605-0.041,3.231-0.014,4.806,0.003c2.415,0.022,4.914,0.051,7.351-0.13  c0.272-0.021,0.528,0.021,0.775,0.058C76.926,88.024,77.26,88.075,77.728,88.017z"/><path fill="white" d="M75.938,89.421c-2.501,0.186-5.03,0.162-7.476,0.138c-1.56-0.014-3.173-0.03-4.755,0.01  c-1.029,0.025-2.059,0.08-3.089,0.134c-0.955,0.05-1.91,0.1-2.866,0.128c-0.986,0.028-1.973,0.021-2.959,0.016  c-0.498-0.004-0.995-0.006-1.495-0.006l-0.202-0.002c-0.153-0.002-0.28,0.002-0.4,0.015c0.284,0.569,0.616,1.149,0.944,1.718  c0.337,0.583,0.67,1.16,0.95,1.721c0.123,0.247,0.229,0.484,0.321,0.721c0.486-0.005,0.988-0.015,1.511-0.027  c1.665-0.044,3.373-0.075,4.9,0.126c0.725-0.946,1.343-1.732,1.55-1.945c0.942-0.969,1.693-1.569,2.518-1.569  c1.126,0,1.839,1.106,2.664,2.387c0.239,0.371,0.47,0.721,0.701,1.059c0.712-0.337,1.524-0.457,2.154-0.446  c1.017,0.021,2.169,0.014,3.271,0.006l0.951-0.004c0.172-0.903,0.444-1.768,0.714-2.617l0.184-0.58  c0.062-0.203,0.171-0.551,0.367-0.935c-0.005,0-0.01-0.001-0.015-0.002C76.202,89.436,76.043,89.414,75.938,89.421z"/><path fill="white" d="M78.403,47.067c-1.193,0.035-2.391,0.287-3.573,0.37c-0.379,0.026-1.262,0.186-1.277,0.185  c-3.713,0.208-7.447-0.025-10.979-0.06c-1.85-0.017-3.605-0.048-5.302-0.09c-0.002,0-0.004,0.002-0.006,0.002  c-0.003,0-0.005-0.002-0.008-0.002c-1.962-0.048-3.842-0.112-5.657-0.195c-2.587-0.119-4.719-0.118-6.711,0.003  c-0.378,0.022-0.475,0.107-0.478,0.11c0,0-0.047,0.118,0.052,0.484c0.3,1.109,0.443,2.219,0.497,3.321  c2.01-0.047,4.075-0.184,6.087-0.33c2.244-0.164,4.565-0.332,6.812-0.359c0.475-0.003,1.428,0.055,2.184,0.531  c0.594-0.45,1.082-0.994,1.59-1.568c0.36-0.407,0.732-0.823,1.153-1.216c0.495-0.462,1.081-0.678,1.663-0.612  c0.41,0.043,1.007,0.336,1.523,1.072C66.713,49.77,67.607,50,68.654,51h0.011c2.535,0,10.766-0.286,12.988-0.427  c0.936-0.059,2.087-0.137,3.124,0.145c0.381-0.547,0.311-1.19,0.155-2.144c-0.069-0.424-0.142-0.87-0.146-1.317  c-0.083-0.148-0.322-0.243-0.843-0.235c-0.995,0.032-1.99,0.051-2.985,0.072C80.137,47.111,78.41,47.067,78.403,47.067z"/><path fill="white" d="M62.304,24.381c0.058-0.609,0.115-1.227,0.174-1.852c0.109-1.166,0.203-2.162,0.267-2.852  c-0.754-0.104-1.601-0.26-2.24-0.415c-0.004,0.007-0.005,0.015-0.009,0.022l-1.736,4.724L62.304,24.381z"/><path fill="white" d="M59.079,60.477l-0.153-2.546c-0.992,0.097-1.98,0.359-2.74,0.678C57.195,59.722,58.268,60.233,59.079,60.477z"/><path fill="white" d="M60.597,60.706c0.061,0.001,0.121,0.003,0.203,0.003c0.498,0,1.629-0.044,2.517-0.4c-0.355-1.396-1.325-2.192-2.888-2.379  L60.597,60.706z"/><path fill="white" d="M85.652,60.017c0.015-0.464-0.086-0.875-0.222-1.352c-0.104-0.367-0.157-0.732-0.208-1.085  c-0.057-0.387-0.109-0.753-0.225-1.063c-0.489-1.312-0.703-2.718-0.652-4.292c-0.023-0.042-0.035-0.081-0.053-0.121  c-0.807-0.201-1.759-0.19-2.544-0.141c-1.263,0.08-4.44,0.173-7.434,0.238c0.855,0.406,1.705,0.988,2.479,1.722  c0.95,0.899,1.427,1.964,1.416,3.164c-0.002,0.188-0.011,0.345-0.025,0.478l0.314,0.197c0.398,0.253,0.797,0.507,1.212,0.733  c1.408,0.772,2.957,1.024,4.596,1.292C84.756,59.859,85.205,59.933,85.652,60.017z"/><path fill="white" d="M47.661,97.733c-0.142,0.008-0.283,0.003-0.425-0.003c-0.129-0.006-0.249-0.011-0.328,0.003L46.492,97.8  c-0.884,0.138-1.729,0.27-2.404,0.701c0.263,0.355,0.688,0.538,1.418,0.642c0.901,0.129,1.807,0.219,2.713,0.308l0.644,0.065  c0.008-0.18,0.021-0.361,0.044-0.546c0.115-0.956,0.019-1.15-0.002-1.179C48.86,97.757,48.636,97.674,47.661,97.733z"/><path fill="white" d="M114.583,118.591l-3.161-0.01c-3.896-0.002-7.923-0.004-11.899-0.28c-2.177-0.149-4.706-0.274-7.164,0.165  c-1.181,0.211-2.386,0.198-3.546,0.19c-0.473-0.005-0.943-0.01-1.41,0.002c-0.855,0.021-1.75,0.012-2.654,0.002  c-1.493-0.016-3.027-0.023-4.451,0.096c-0.076,0.177-0.182,0.331-0.318,0.463c0.071,0.227,0.137,0.445,0.213,0.682  c0.182,0.568,0.356,1.142,0.511,1.702c0.392-0.067,0.796-0.114,1.104-0.13l2.072-0.109c2.597-0.139,5.282-0.283,7.934-0.305  c4.886-0.037,9.771-0.033,14.655-0.028c2.739,0.002,5.475,0.005,8.213,0c0.233,0,0.472-0.022,0.708-0.044  c0.224-0.02,0.444-0.039,0.659-0.045c1.976-0.061,3.983-0.052,5.923-0.045l1.142,0.003c-0.076-0.587-0.184-1.429-0.304-2.388  C120.354,118.621,117.307,118.606,114.583,118.591z"/><path fill="white" d="M122.879,62.856c-0.475-0.375-1.725-1.041-3.125-1.743c-0.014-0.008-0.027-0.015-0.041-0.021  c-0.719-0.36-1.475-0.729-2.186-1.072l-0.166-0.08c-1.691-0.817-3.326-1.483-4.861-1.979c-0.729-0.234-1.312-0.696-1.932-1.185  c-0.449-0.354-0.914-0.721-1.457-1.02c-1.1-0.604-5.535-3.319-6.621-4.125c-0.18-0.135-4.396-3.326-5.48-4.012  c-1.352-0.854-2.605-1.845-3.76-2.788c-0.496-0.406-0.924-0.925-1.375-1.474c-0.258-0.312-0.516-0.624-0.787-0.919  c-0.426-0.462-0.891-0.899-1.34-1.321c-0.941-0.885-2.453-1.72-2.939-2.71c-0.002-0.003-0.629-0.006-0.629-0.01v-0.004  c0-0.002,0.619-0.003,0.619-0.006c-0.539-1.088-0.994-1.927-1.736-2.738c-0.717-0.781-1.236-1.52-1.66-2.427  c-0.023-0.054,0.023-0.104-0.014-0.15c-0.041-0.051-4.014-5.101-5.164-6.876c-1.715-2.645-3.012-4.829-4.127-6.872l-0.062-0.136  c-0.648-1.19-1.438-2.636-2.703-3.537c-0.293,0.003-0.566,0.001-0.811-0.005c-0.07,0.335-0.117,0.667-0.148,0.997  c0.193,0.22,0.402,0.452,0.566,0.708c0.006-0.022,0.014-0.045,0.021-0.067c0.736,0.729,1.295,1.754,1.766,2.62l0.074,0.138  c1.133,2.078,2.469,4.292,4.203,6.971c0.686,1.055,2.271,3.135,3.531,4.755c-1.133,0.504-2.031,1.304-1.697,3.01  c0.047,0.236,0.188,0.955,0.809,1.283c0.213,0.112,0.43,0.151,0.633,0.151c0.383,0,0.713-0.141,0.854-0.201l0.898-0.381  c0.336-0.143,0.672-0.285,0.998-0.425c0.389,0.519,0.814,0.995,1.238,1.457c0.539,0.591,1.055,1.157,1.467,1.796  c-1.039,0.614-2.066,1.366-2.99,2.054l-0.412,0.305c-0.188,0.138-0.299,0.354-0.305,0.587c-0.004,0.232,0.098,0.454,0.279,0.6  l1.801,1.456c0.135,0.109,0.303,0.166,0.471,0.166c0.082,0,0.164-0.013,0.242-0.04c1.211-0.413,2.389-1.207,3.348-1.901  c0.184,0.177,0.367,0.354,0.553,0.526c0.434,0.408,0.869,0.815,1.264,1.244c0.254,0.275,0.492,0.566,0.732,0.857  c0.246,0.299,0.498,0.602,0.768,0.895c-1.148,1.101-2.551,2.708-2.621,2.789c-0.258,0.297-0.242,0.742,0.035,1.021l0.158,0.163  c0.141,0.144,0.279,0.287,0.428,0.42c0.678,0.605,1.238,0.908,1.785,0.908c0.555,0,1.096-0.31,1.732-0.931  c0.434-0.425,1.043-1.038,1.574-1.573l0.148-0.148c0.484,0.352,0.967,0.706,1.482,1.032c0.293,0.186,0.855,0.584,1.504,1.057  c-0.223,0.329-0.457,0.669-0.703,1.02c-0.512,0.73-1.043,1.485-1.424,2.138c-0.039,0.067-0.088,0.133-0.139,0.2  c-0.24,0.328-0.977,1.327,0.143,2.277c0.387,0.328,0.775,0.492,1.166,0.492c0.514,0,1.029-0.282,1.541-0.847  c0.229-0.251,0.625-0.628,1.062-1.047c0.627-0.601,1.26-1.21,1.723-1.729c0.305,0.229,0.5,0.377,0.51,0.385  c0.287,0.213,0.779,0.542,1.375,0.926c-0.766,1.518-1.822,3.909-2.082,5.559c-0.025,0.161,0.002,0.326,0.078,0.47  c0.129,0.24,0.428,0.54,0.885,0.661c0.697,0.184,1.217,0.291,1.633,0.291c0.92,0,1.324-0.531,2.002-1.956  c0.193-0.404,0.465-0.897,0.742-1.403c0.225-0.406,0.441-0.811,0.641-1.201c0.662,0.397,1.217,0.722,1.525,0.893  c0.434,0.239,0.83,0.552,1.25,0.883c0.266,0.21,0.541,0.419,0.828,0.619c-0.299,0.652-0.721,1.327-1.137,1.986  c-0.215,0.339-0.422,0.669-0.633,1.029c-0.334,0.57-0.715,1.218-0.613,2.089c0.027,0.239,0.168,0.45,0.379,0.568l1.732,0.97  c0.113,0.063,0.238,0.096,0.365,0.096c0.072,0,0.145-0.011,0.213-0.031c0.195-0.058,0.357-0.19,0.451-0.369  c0.449-0.853,0.957-1.787,1.465-2.722c0.398-0.732,0.789-1.454,1.158-2.147c0.928,0.362,1.883,0.775,2.861,1.249l0.166,0.08  c0.559,0.27,1.07,0.521,1.541,0.752c-0.436,0.966-0.967,2.141-1.391,2.892c-0.979,1.738,0.432,2.623,0.963,2.957  c0.658,0.411,1.361,0.535,2.127,0.67c0.045,0.008,0.088,0.012,0.131,0.012c0.277,0,0.535-0.153,0.666-0.405  c0.715-1.38,2.121-4.357,2.182-4.483C123.242,63.449,123.152,63.072,122.879,62.856z"/><path fill="white" d="M66,8.733V9h0.043c-1.192,0-2.256-0.272-2.68-0.305c-0.303-0.023-0.599-0.191-0.898-0.191c-1.439,0-2.829,0.238-4.314,0.489  c-0.556,0.094-1.086,0.215-1.643,0.295c-0.687,0.1-0.947,0.405-0.84,1.518C55.75,11.64,55.863,12,56.979,12h0.266  c0,0,0.715-0.23,1.569-0.251c1.705-0.041,4.183-0.209,6.354-0.209c1.389,0,2.307-0.065,3.008-0.014  c1.61,0.117,3.12-0.184,4.355-0.475c0.146-0.025,0.842-0.147,0.966-0.796c0.031-0.166-0.055-0.4-0.25-0.636  C72.784,9.059,71.77,8.51,70.6,8.625c-0.379,0.038-1.063,0.09-1.89,0.09C67.888,8.715,67,8.76,66,8.733z"/><path fill="white" d="M58.03,45.989c1.468,0.033,2.973,0.059,4.557,0.073c3.299,0.032,6.772,0.032,10.227-0.137  c-0.011-0.215-0.021-0.439-0.033-0.681c-0.058-1.152-0.126-2.512-0.134-3.262c-0.018-1.464-0.229-2.411-1.26-2.921  c-0.972-0.479-1.484-1.303-1.937-2.028c-0.316-0.509-0.623-0.983-1.047-1.292c-0.792-0.128-1.467-0.698-2.021-1.17  c-0.074-0.062-0.146-0.124-0.217-0.183c-0.12,0.038-0.265,0.087-0.309,0.126c-0.923,0.805-1.967,1.255-3.107,1.387  c-0.605,1.583-1.923,2.489-3.136,3.211c-1.555,0.924-2.143,1.561-1.765,3.114c0.254,1.047,0.218,2.328,0.187,3.459  C58.033,45.791,58.033,45.886,58.03,45.989z"/><path fill="white" d="M50.384,113.982c0.471-0.004,0.995,0.018,1.162,0.018c0.009,0,0.295,0,0.773,0c0.301,0,0.676-0.011,1.093-0.014  c0.025-1.192,0.047-3.557,0.07-6.044c0.057-6.265,0.108-11.13,0.215-12.009c0.089-0.736-0.074-1.222-0.448-1.969  c-0.268-0.535-0.585-1.086-0.907-1.642c-0.423-0.732-0.852-1.485-1.197-2.241c-0.479-0.045-0.932-0.21-1.321-0.509  c-0.735-0.565-1.115-1.5-1.017-2.499l0.03-0.346c0.088-1.041,0.208-2.466,1.66-3.145c0.843-0.394,1.747-0.508,2.616-0.523  c0.075-0.725,0.288-1.454,0.473-2.074l0.12-0.41c0.624-2.18,2.459-2.35,3.933-2.487l0.294-0.027c0.726-0.071,1.45-0.098,2.174-0.107  c0.377-3.482,1.166-7.374,3.67-10.665c-1.919,0.101-4.099,0.237-5.112,0.376c-2.908,0.4-5.814,0.807-8.717,1.249  c-2.082,0.316-4.216,0.932-6.921,1.995c-4.233,1.665-8.076,4.212-11.792,6.675l-0.527,0.35c-4.024,2.664-8.649,5.999-12.438,10.535  c-2.855,3.42-5.132,6.337-6.292,10.109c-0.641,2.089-1.086,4.36-1.444,7.366l-0.085,0.683l0.254,0.089  c0.504,0.167,0.979,0.324,1.457,0.334c1.441,0.031,2.882,0.068,4.322,0.104c2.438,0.062,4.876,0.123,7.313,0.159  c2.594,0.039,4.765,0.013,6.974-0.237c2.921-0.329,6.143-0.322,9.847,0.022c1.066,0.099,2.544,0.09,4.11,0.078  c1.507-0.011,3.037-0.015,4.285,0.078c0.049-1.889,0.088-3.507,0.07-4.433c-0.009-0.453-0.058-0.899-0.106-1.348  c-0.016-0.146-0.031-0.295-0.047-0.443l-0.855-0.087c-0.928-0.092-1.855-0.184-2.777-0.316c-0.616-0.087-2.256-0.32-2.854-2.099  c-0.092-0.274-0.019-0.577,0.189-0.778c1.069-1.033,2.431-1.245,3.632-1.433l0.402-0.064c0.234-0.037,0.449-0.028,0.639-0.021  c0.09,0.003,0.179,0.008,0.269,0.004c0.959-0.059,1.872-0.062,2.428,0.528c0.506,0.535,0.526,1.31,0.396,2.385  c-0.086,0.715-0.01,1.418,0.07,2.163c0.054,0.492,0.105,0.983,0.115,1.48c0.02,1.026-0.027,2.829-0.081,4.91  C50.448,109.665,50.389,112.009,50.384,113.982z"/><path fill="white" d="M44.734,108.676c-1.602,0.011-3.117,0.021-4.259-0.085c-3.599-0.333-6.722-0.342-9.54-0.025  c-2.424,0.274-4.874,0.28-7.163,0.247c-2.443-0.036-4.887-0.098-7.329-0.16c-1.439-0.036-2.878-0.072-4.317-0.104  c-0.704-0.015-1.311-0.216-1.896-0.41l-0.124-0.041c-0.08-0.026-0.158-0.056-0.235-0.085c-0.239-0.09-0.315-0.112-0.464-0.078  c-2.69,0.668-2.69,0.668-2.611,3.442c0.025,0.89,0.121,1.763,0.224,2.688c0.047,0.425,0.09,0.86,0.13,1.296l0.915,0.003  c0.941,0.004,1.881,0.009,2.818-0.008c3.201-0.054,6.445,0.059,9.58,0.168c3.626,0.126,7.373,0.257,11.055,0.127  c4.792-0.17,11.931-0.422,17.374-0.34c-0.029-1.853,0.022-4.24,0.08-6.561C47.777,108.657,46.234,108.667,44.734,108.676z   M13.309,112.192c-0.094,0.141-0.281,0.307-0.643,0.308c-0.064,0-0.135-0.006-0.213-0.018c-0.711-0.109-1.049-0.626-1.016-1.081  c0.041-0.514,0.545-1.037,1.623-0.854l0.139,0.023l0.053,0.129C13.293,110.8,13.643,111.698,13.309,112.192z M21.309,112.192  c-0.094,0.141-0.281,0.307-0.643,0.308c-0.064,0-0.135-0.006-0.213-0.018c-0.711-0.109-1.049-0.626-1.016-1.081  c0.041-0.514,0.545-1.037,1.623-0.854l0.139,0.023l0.053,0.129C21.293,110.8,21.643,111.698,21.309,112.192z M29.309,112.192  c-0.094,0.141-0.281,0.307-0.643,0.308c-0.064,0-0.135-0.006-0.213-0.018c-0.711-0.109-1.049-0.626-1.016-1.081  c0.041-0.514,0.545-1.037,1.623-0.854l0.139,0.023l0.053,0.129C29.293,110.8,29.643,111.698,29.309,112.192z M36.309,112.192  c-0.094,0.141-0.281,0.307-0.643,0.308c-0.064,0-0.135-0.006-0.213-0.018c-0.711-0.109-1.049-0.626-1.016-1.081  c0.041-0.514,0.545-1.037,1.623-0.854l0.139,0.023l0.053,0.129C36.293,110.8,36.643,111.698,36.309,112.192z M44.309,112.192  c-0.094,0.141-0.281,0.307-0.643,0.308c-0.064,0-0.135-0.006-0.213-0.018c-0.711-0.109-1.049-0.626-1.016-1.081  c0.041-0.514,0.545-1.037,1.623-0.854l0.139,0.023l0.053,0.129C44.293,110.8,44.643,111.698,44.309,112.192z"/><path fill="white" d="M69.116,96.846c-0.427-0.413-0.797-0.858-1.14-1.315c-0.004-0.004-0.009-0.006-0.012-0.01  c-0.004-0.005-0.005-0.012-0.009-0.017c-0.4-0.536-0.762-1.089-1.113-1.633c-0.432-0.67-1.144-1.775-1.452-1.775  c-0.163,0-0.545,0.193-1.443,1.116c-0.438,0.45-3.974,5.149-4.596,6.034c-0.268,0.381-0.489,0.908-0.306,1.249  c0.219,0.405,0.563,0.669,0.77,0.596c1.263-0.463,2.515-0.474,3.725-0.485c0.275-0.002,0.55-0.005,0.822-0.013  c0.393-0.013,0.789-0.046,1.188-0.079c0.527-0.044,1.073-0.09,1.625-0.09c0.981,0,1.794,0.15,2.528,0.471  c0.122-0.064,0.246-0.125,0.374-0.173c1.141-0.429,1.178-0.509,0.804-1.714c-0.227-0.731-0.794-1.258-1.395-1.815L69.116,96.846z"/><path fill="white" d="M64.41,102.092c-0.283,0.009-0.563,0.011-0.85,0.014c-1.017,0.01-1.975,0.033-2.899,0.305  c0.018,1.246,0.03,2.545,0.024,3.877c-0.008,2.521,0.016,5.106,0.161,7.461c0.603-0.007,1.467-0.014,2.574-0.024  c1.536-0.014,3.365-0.026,5.365-0.053l0.011-11.521c-1-0.219-0.769-0.226-1.518-0.226c-0.5,0-1.104,0.043-1.604,0.085  C65.251,102.044,64.829,102.079,64.41,102.092z"/><path fill="white" d="M75.068,96.711c-0.097-0.557-0.125-1.093-0.108-1.613l-0.771,0.003c-1.116,0.008-2.282,0.014-3.312-0.006  c-0.372-0.01-0.8,0.067-1.175,0.192c0.145,0.164,0.279,0.326,0.437,0.479l0.33,0.327c0.686,0.636,1.426,1.356,1.771,2.47  c0.606,1.956-0.02,2.855-1.903,3.562c-0.023,0.009-0.337,0.023-0.337,0.034v11.485c2-0.023,3.584-0.053,5.004-0.089  c-0.001-0.01,0.205-0.026,0.203-0.034c-0.123-2.37-0.08-6.234-0.068-9.643C75.148,100.696,75.188,97.406,75.068,96.711z"/><path fill="white" d="M56.461,95.483c-0.429,0.011-0.846,0.02-1.253,0.026c0.003,0.193,0.003,0.388-0.022,0.601  c-0.104,0.865-0.161,7.208-0.204,11.84c-0.023,2.536-0.043,4.8-0.067,6.013c1.629-0.021,3.408-0.069,4.236-0.178  c0.028-0.004,0.075-0.008,0.143-0.011c-0.143-2.385-0.142-4.972-0.133-7.493c0.005-1.301,0.006-2.569-0.011-3.789  c-0.651-0.229-1.156-0.788-1.425-1.287c-0.437-0.812-0.291-1.841,0.4-2.822c0.238-0.338,1.163-1.586,2.141-2.881  C59.064,95.418,57.748,95.449,56.461,95.483z"/><path fill="white" d="M50.811,118.921c0.437-0.261,0.975-0.426,1.676-0.402c1.857,0.048,3.837,0.071,5.843-0.2  c2.132-0.287,4.311-0.301,6.417-0.312c1.888-0.015,3.712,0.096,5.491,0.2c2.652,0.155,5.397,0.316,8.075,0.077  c0.52-0.046,0.624-0.126,0.634-0.135c0.028-0.043,0.076-0.224,0.045-0.898c-0.023-0.479-0.041-1.351-0.058-2.356  c-1.586,0.138-5.471,0.239-15.603,0.33c-2.037,0.019-3.797,0.034-4.006,0.051c-1.021,0.134-3.307,0.441-5.148,0.457  c-0.013,0.001-0.022,0.269-0.035,0.269c-0.015,0-0.029,0-0.044,0c-0.006,0-0.011-0.266-0.017-0.267  c-0.613,0.005-1.174-0.125-1.615-0.125c-0.551,0-0.917-0.067-0.975-0.068c-0.187-0.011-0.666-0.041-1.097-0.037  c0.02,1.102,0.068,1.959,0.166,2.398C50.596,118.058,50.699,118.473,50.811,118.921z"/><path fill="white" d="M49.817,57.869c1.867-2.332,4.32-3.925,7.292-4.735c0.443-0.12,0.859-0.492,1.301-0.886  c0.064-0.058,0.133-0.113,0.198-0.171c-0.228-0.047-0.473-0.078-0.729-0.071c-2.202,0.026-4.5,0.193-6.723,0.355  c-2.034,0.148-4.126,0.287-6.176,0.335c-0.02,1.212-0.115,2.415-0.214,3.601c-0.061,0.736-0.122,1.474-0.164,2.209l-0.017,0.271  c-0.029,0.495-0.06,1.007-0.01,1.137c0.076,0.02,0.647,0.096,1.199,0.169c0.122,0.017,0.229,0.051,0.326,0.094  c0.558-0.475,1.207-0.78,1.84-1.079C48.678,58.752,49.372,58.424,49.817,57.869z"/><path fill="white" d="M59.649,34.396c0.1-0.003,0.208-0.022,0.318-0.039c0.277-0.044,0.622-0.098,0.966-0.022c0.172,0.037,0.34,0.062,0.505,0.084  c0.037-0.683,0.122-1.773,0.239-3.14c-0.224-0.011-0.433-0.022-0.667-0.033c-1.834-0.084-3.868-0.192-5.587-0.554  c-0.089,0.16-0.136,0.226-0.192,0.287c-0.318,0.351-0.844,1.58-1.414,3.15C55.547,34.355,57.53,34.451,59.649,34.396z"/><path fill="white" d="M121.269,109.908c-1.298-0.119-2.575-0.064-3.927-0.006l-1.555,0.068c-3.516,0.16-7.15,0.326-10.771-0.159  c-3.472-0.465-7.066-0.378-10.541-0.293l-0.841,0.021c-1.803,0.041-3.625-0.057-5.381-0.152c-1.782-0.099-3.627-0.198-5.436-0.146  c-0.643,0.019-1.414,0.059-2.139,0.097l-0.448,0.021c0.059,1.026-0.092,2.723-0.055,4.854c0.021,1.262-0.177,2.394-0.177,2.966  v0.058c2-0.099,3.097-0.092,4.519-0.076c0.886,0.009,1.946,0.018,2.788-0.002c0.484-0.01,1.002-0.007,1.488-0.002  c1.148,0.012,2.243,0.02,3.284-0.167c2.627-0.471,5.275-0.342,7.539-0.185c3.925,0.272,7.931,0.274,11.801,0.276l3.17,0.01  c2.664,0.016,5.638,0.03,8.035-0.071c-0.317-2.602-0.646-5.509-0.673-6.572C121.945,110.223,121.939,109.969,121.269,109.908z   M87.309,114.192c-0.094,0.141-0.281,0.307-0.643,0.308c-0.064,0-0.135-0.006-0.213-0.018c-0.711-0.109-1.049-0.626-1.016-1.081  c0.041-0.514,0.545-1.037,1.623-0.854l0.139,0.023l0.053,0.129C87.293,112.8,87.643,113.698,87.309,114.192z M95.309,114.192  c-0.094,0.141-0.281,0.307-0.643,0.308c-0.064,0-0.135-0.006-0.213-0.018c-0.711-0.109-1.049-0.626-1.016-1.081  c0.041-0.514,0.545-1.037,1.623-0.854l0.139,0.023l0.053,0.129C95.293,112.8,95.643,113.698,95.309,114.192z M103.309,114.192  c-0.094,0.141-0.281,0.307-0.643,0.308c-0.064,0-0.135-0.006-0.213-0.018c-0.711-0.109-1.049-0.626-1.016-1.081  c0.041-0.514,0.545-1.037,1.623-0.854l0.139,0.023l0.053,0.129C103.293,112.8,103.643,113.698,103.309,114.192z M110.309,114.192  c-0.094,0.141-0.281,0.307-0.643,0.308c-0.064,0-0.135-0.006-0.213-0.018c-0.711-0.109-1.049-0.626-1.016-1.081  c0.041-0.514,0.545-1.037,1.623-0.854l0.139,0.023l0.053,0.129C110.293,112.8,110.643,113.698,110.309,114.192z M118.309,114.192  c-0.094,0.141-0.281,0.307-0.643,0.308c-0.064,0-0.135-0.006-0.213-0.018c-0.711-0.109-1.049-0.626-1.016-1.081  c0.041-0.514,0.545-1.037,1.623-0.854l0.139,0.023l0.053,0.129C118.293,112.8,118.643,113.698,118.309,114.192z"/><path fill="white" d="M58.848,37.824c0.869-0.517,1.735-1.096,2.253-1.944c-0.16-0.023-0.319-0.044-0.482-0.078  c-0.072-0.015-0.281,0.017-0.42,0.037c-0.176,0.027-0.349,0.053-0.508,0.057c-2.328,0.066-4.503-0.052-6.38-0.321  c-0.976,2.896-1.949,6.343-2.168,7.894c-0.08,0.569-0.097,1.311-0.113,2.027c-0.002,0.089-0.005,0.174-0.007,0.261  c0.218,0.009,0.422,0.013,0.646,0.023c1.567,0.071,3.186,0.129,4.861,0.175c0.003-0.106,0.003-0.203,0.006-0.311  c0.029-1.036,0.062-2.21-0.144-3.062C55.744,39.923,57.25,38.773,58.848,37.824z"/><path fill="white" d="M79.349,123.255c0.139-0.187,0.121-0.431,0.082-0.603c-0.157-0.701-0.417-1.511-0.668-2.295  c-0.066-0.208-0.124-0.398-0.187-0.6c-0.047,0.005-0.082,0.016-0.131,0.02c-2.788,0.248-5.589,0.084-8.296-0.074  c-1.754-0.103-3.569-0.209-5.347-0.198c-2.107,0.013-4.236,0.025-6.272,0.3c-2.116,0.285-4.25,0.259-6.083,0.213  c-0.742-0.03-1.268,0.211-1.668,1.378c0.141,0.23,0.248,0.493,0.314,0.791c0.158,0.707,0.399,0.944,1.517,0.954l2.335,0.016  c3.565,0.019,7.252,0.039,10.871,0.296c2.22,0.157,4.481,0.17,6.67,0.183c0.952,0.006,1.904,0.011,2.856,0.027  c1.145,0.024,2.343-0.062,3.398-0.134C79.016,123.51,79.231,123.412,79.349,123.255z"/><path fill="white" d="M79.645,100.788c0.146-0.068,0.305-0.125,0.474-0.171c0.729-0.196,1.389-0.603,2.088-1.032  c0.263-0.162,0.526-0.323,0.793-0.475c0.215-0.121,0.306-0.288,0.29-0.362c-0.014-0.063-0.046-0.229-0.412-0.194  c-0.331,0.03-0.664,0.021-0.999,0.014c-0.27-0.008-0.539-0.016-0.805,0.006c-0.405,0.033-0.772,0.039-1.092,0.044  c-0.202,0.003-0.436,0.007-0.603,0.021c0.021,0.09,0.057,0.218,0.12,0.396C79.566,99.22,79.585,99.437,79.645,100.788z"/><path fill="white" d="M16.102,119.758c1.12-0.084,2.243-0.084,3.32-0.083c0.388,0,0.778,0,1.167-0.003l1.165-0.011  c4.619-0.043,9.396-0.086,14.102,0.021c2.554,0.059,5.143,0.213,7.646,0.362c1.752,0.104,3.503,0.208,5.255,0.282  c0.282,0.012,0.54,0.059,0.777,0.131c0.023-0.055,0.049-0.108,0.075-0.162c-0.156-0.605-0.451-1.812-0.512-2.08  c-0.071-0.322-0.121-0.809-0.155-1.403c-5.414-0.087-12.574,0.168-17.372,0.338c-1.102,0.039-2.207,0.055-3.312,0.055  c-2.639,0-5.274-0.093-7.848-0.183c-3.118-0.108-6.347-0.224-9.503-0.167c-0.95,0.015-1.9,0.01-2.851,0.005l-0.821-0.006  c0.005,0.166,0.022,0.323,0.022,0.489c0,0.184,0.009,0.356,0.018,0.542c0.023,0.524,0.051,1.093-0.104,1.685  c-0.069,0.264-0.059,0.402-0.052,0.44c0.016-0.008,0.123-0.01,0.345-0.01h0.083c0.798,0,1.595-0.009,2.393-0.026  C11.965,119.927,14.06,119.914,16.102,119.758z"/><path fill="white" d="M5.915,67.157c0.389-0.062,0.777-0.125,1.164-0.199c0.26-0.049,0.538-0.074,0.816-0.101  c0.437-0.041,0.901-0.096,1.342-0.224c0.133,0.388,0.264,0.788,0.391,1.189c0.204,0.646,0.408,1.291,0.627,1.858  c0.508,1.322,1.285,1.611,1.87,1.611c0.231,0,0.433-0.045,0.574-0.09c1.606-0.51,1.365-2.075,1.263-2.745  c-0.082-0.529-0.319-1.207-0.571-1.924c-0.227-0.646-0.474-1.355-0.577-1.888c0.055-0.025,0.108-0.052,0.164-0.078  c0.749-0.354,1.524-0.722,2.256-1.188c0.108-0.069,0.396-0.238,0.787-0.468c0.017,0.035,0.031,0.066,0.048,0.103  c0.343,0.729,0.731,1.557,1.055,2.075c0.527,0.847,1.069,1.617,1.896,1.745c0.08,0.012,0.16,0.018,0.238,0.018  c0.734,0,1.406-0.518,2.137-1.141c0.202-0.173,0.298-0.439,0.251-0.702l-0.861-4.845c0.309-0.176,0.597-0.342,0.855-0.489  c0.543-0.21,1.516-0.786,2.545-1.467c0.021,0.023,0.042,0.047,0.063,0.071c0.473,0.53,0.961,1.078,1.321,1.595  c0.481,0.689,1.069,0.884,1.614,0.884c0.447,0,0.866-0.131,1.173-0.228c0.478-0.149,0.828-0.465,1.168-0.77  c0.123-0.11,0.249-0.225,0.385-0.329c0.232-0.181,0.339-0.479,0.271-0.766c-0.293-1.241-1.071-2.384-1.759-3.393  c-0.069-0.102-0.131-0.197-0.198-0.296c0.473-0.5,1.917-1.745,3.469-3.055c0.437,0.396,0.958,0.791,1.38,1.106l0.292,0.219  c0.634,0.48,1.217,0.88,1.837,0.88c0.096,0,0.193-0.01,0.292-0.03c0.731-0.153,1.178-0.855,1.607-1.623  c0.106-0.19,0.125-0.416,0.052-0.621c-0.382-1.058-1.427-1.895-2.304-2.573c1.726-1.441,2.771-2.323,3.346-2.842  c0.088,0.081,0.175,0.161,0.267,0.247c0.666,0.628,1.421,1.339,2.489,1.445c0.025,0.002,0.05,0.003,0.074,0.003  c0.238,0,0.465-0.113,0.606-0.309c0.88-1.212,1.431-2.215,1.256-3.173c-0.132-0.728-0.646-1.268-1.323-1.775  c0.361-0.375,0.729-0.756,1.088-1.128c0.429-0.443,0.85-0.88,1.252-1.298c0.529,0.477,1.17,1.013,1.659,1.4  c0.476,0.379,0.91,0.483,1.244,0.483c0.096,0,0.183-0.009,0.261-0.021c0.343-0.058,0.839-0.262,1.249-0.906  c0.943-1.491,0.468-2.523-0.098-3.125c-0.339-0.363-0.794-0.756-1.234-1.135c-0.013-0.012-0.023-0.021-0.036-0.032  c2.869-3.687,4.92-7.652,6.894-11.497c0.121-0.15,0.327-0.415,0.597-0.761c1.973-2.526,3.389-4.264,4.419-5.465l0.25-0.68  c0.015-0.04,0.033-0.078,0.055-0.115c0.075-0.131,0.12-0.323,0.169-0.527c0.007-0.029,0.016-0.055,0.022-0.084  c-0.013,0.013-0.03,0.033-0.043,0.047c0.071-0.36-0.188-0.729-0.319-1.149c0.15-0.006,0.01-0.012,0.01-0.02V16.5  c-1,1.098-2.729,3.261-5.98,7.43c-0.303,0.388-0.405,0.673-0.51,0.801c-0.033,0.041-0.003,0.087-0.026,0.134  c-2.022,3.938-4.084,8.012-7.043,11.714c-0.42,0.527-2.173,2.359-3.884,4.13c-2.265,2.345-3.658,3.803-4.002,4.266  c-0.254,0.301-2.33,2.035-4.164,3.566c-0.787,0.657-1.489,1.246-2.12,1.776c-0.001,0.001-0.002,0.001-0.003,0.002  s-0.002,0.003-0.002,0.004c-2.855,2.4-4.165,3.56-4.438,3.998c-0.424,0.571-4.538,3.541-5.755,3.966  c-0.043,0.015-0.085,0.034-0.125,0.057c-0.24,0.138-5.881,3.364-6.521,3.772c-0.652,0.416-1.351,0.747-2.091,1.097  c-1.06,0.501-2.154,1.019-3.142,1.819c-0.275,0.223-0.867,0.278-1.439,0.333c-0.326,0.03-0.652,0.062-0.956,0.12  c-0.373,0.071-0.748,0.132-1.123,0.192l-0.522,0.085c-0.408,0.068-0.684,0.455-0.615,0.863c0.061,0.367,0.379,0.627,0.738,0.627  c0.041,0,0.083-0.004,0.125-0.011L5.915,67.157z"/><path fill="white" d="M79.836,103.216c0.187,0.987,0.209,1.968,0.23,2.916c0.014,0.596,0.04,1.166,0.09,1.731l0.475-0.023  c0.737-0.039,1.506-0.08,2.16-0.099c1.866-0.056,3.739,0.048,5.553,0.147c1.728,0.095,3.518,0.193,5.26,0.15l0.837-0.02  c3.535-0.086,7.188-0.176,10.776,0.306c3.199,0.429,6.467,0.326,9.65,0.186c-0.197-1.958-0.633-3.915-1.062-5.812  c-0.116-0.516-0.233-1.031-0.346-1.548c-0.708-3.244-2.329-6.386-5.104-9.889c-4.392-5.548-8.021-9.603-11.771-13.147  c-2.178-2.059-8.264-5.117-13.496-7.39c-0.029-0.011-0.057-0.023-0.085-0.037c-3.557-1.542-6.706-2.715-7.942-2.955  c-2.283-0.443-4.732-0.637-7.76-0.602c-0.092,0.001-0.515,0.017-1.121,0.042c2.477,3.035,4.207,6.614,5.293,10.908  c0.348,0.003,0.703,0.021,1.072,0.078c1.369,0.215,2.533,0.913,3.277,1.967c0.58,0.821,0.852,1.814,0.817,2.854  c0.453,0.057,0.907,0.127,1.361,0.234c0.918,0.217,1.772,1.27,2.267,2.183c0.314,0.582,0.795,1.687,0.479,2.561  c-0.327,0.896-1.202,1.058-1.622,1.136c-0.85,0.158-1.329,0.679-1.662,1.751l-0.186,0.59c-0.532,1.673-1.034,3.254-0.729,5.021  c0.136,0.785,0.134,3.334,0.121,7.429c-0.011,3.389-0.023,7.23,0.098,9.555c0.001,0.016,0.005,0.045,0.009,0.072  c0.927-0.032,1.664-0.069,2.132-0.111c-0.034-1.891-0.081-4.061-0.168-4.639c-0.004-0.026-0.004-0.052-0.008-0.078v-0.001  c-0.124-0.854-0.147-1.698-0.165-2.516c-0.021-0.929-0.04-1.807-0.204-2.671c-0.016-0.085-0.028-0.168-0.038-0.25  c-0.072-0.273-0.109-0.811-0.177-2.338c-0.023-0.546-0.057-1.293-0.082-1.444c-0.194-0.526-0.363-1.215,0.008-1.75  c0.396-0.572,1.086-0.583,1.885-0.596c0.291-0.004,0.624-0.009,0.992-0.039c0.32-0.026,0.643-0.021,0.968-0.011  c0.278,0.009,0.554,0.017,0.826-0.008c0.994-0.094,1.814,0.461,2.011,1.371c0.163,0.75-0.245,1.549-1.017,1.985  c-0.251,0.143-0.499,0.295-0.747,0.447c-0.759,0.466-1.544,0.949-2.481,1.202c-0.372,0.101-0.735,0.289-0.705,0.896  c0.008,0.044,0.012,0.087,0.012,0.131C79.821,103.131,79.828,103.173,79.836,103.216z"/><path fill="white" d="M74.064,35.908c-1.172,0.019-2.373,0.037-3.401,0.237c0.02,0.031,0.041,0.064,0.061,0.096  c0.396,0.637,0.738,1.187,1.327,1.477c2.057,1.016,2.083,3.199,2.096,4.249c0.008,0.737,0.075,2.072,0.132,3.203  c0.012,0.239,0.022,0.462,0.033,0.676c0.138-0.009,0.276-0.012,0.413-0.021c0.964-0.068,1.935-0.11,2.902-0.145  c-0.166-2.94-0.869-6.613-1.723-9.841C75.318,35.878,74.711,35.898,74.064,35.908z"/><path fill="white" d="M73.973,30.237c-0.741,0.177-1.6,0.26-2.437,0.341c-0.817,0.079-1.649,0.163-2.307,0.326  c0.097,1.277,0.169,2.504,0.157,3.186c-0.002,0.121-0.02,0.258-0.038,0.396c-0.003,0.023-0.007,0.047-0.011,0.069  c0.126,0.095,0.236,0.2,0.346,0.307c1.33-0.385,2.86-0.43,4.357-0.453c0.51-0.008,0.99-0.021,1.452-0.043  c-0.234-0.806-0.473-1.58-0.71-2.27C74.688,31.82,74.388,31.138,73.973,30.237z"/><path fill="white" d="M58.019,26.022c-0.026,0.069-0.062,0.135-0.106,0.194c-0.516,0.679-1.235,2.041-1.773,3.09  c1.521,0.272,3.312,0.366,4.94,0.441c0.256,0.012,0.485,0.024,0.729,0.036c0.105-1.186,0.227-2.509,0.356-3.909l-3.94-0.413  L58.019,26.022z"/><path fill="white" d="M68.799,26.369c0.001,0.002,0.004,0.014,0.004,0.014c0.011,0.039,0.02,0.078,0.024,0.119  c0.044,0.372,0.163,1.549,0.279,2.896c0.712-0.153,1.504-0.237,2.285-0.312c0.67-0.064,1.345-0.135,1.927-0.247  c-0.476-1.002-1.022-2.132-1.585-3.271C70.973,25.807,69.761,26.168,68.799,26.369z"/><path fill="white" d="M67.485,18.244c0.483-0.057,0.679-0.189,0.958-0.909c0.427-1.107,0.546-2.463,0.66-3.774  c0.016-0.186,0.037-0.355,0.053-0.537c-0.076,0.002-0.149,0.01-0.228,0.01c-0.284,0-0.571-0.01-0.863-0.03  c-0.656-0.048-1.666-0.071-3.001-0.071c-1.512,0-3.216,0.03-4.69,0.062c0.022,0.079,0.045,0.146,0.068,0.228  c0.246,0.842,0.531,1.802,0.627,2.767c0.004,0.015,0.036,0.025,0.04,0.04c0.018,0.074-0.068,0.146-0.072,0.219  C61.038,16.265,61,16.282,61,16.301v0.021c0,0.511,0.025,1.017-0.099,1.507c1.114,0.266,2.862,0.498,3.173,0.476  c0.494-0.126,0.999-0.158,1.409-0.085l1.647,0.093C67.247,18.279,67.375,18.257,67.485,18.244z"/><path fill="white" d="M82.477,63.73c0-0.822,0.059-1.755,0.357-2.673c-1.297-0.239-2.604-0.567-3.843-1.247c-0.442-0.242-0.869-0.512-1.295-0.782  l-0.543-0.341c-0.112-0.069-0.205-0.168-0.268-0.284l-0.068-0.129c-0.02,0.078-0.041,0.155-0.085,0.225  c-2.276,3.573-5.563,3.735-5.794,3.742c-0.003,0.003-0.43,0.051-1.019,0.051c-0.408,0-0.898-0.03-1.402-0.106l-0.39,0.475  c-0.828,0.799-1.696,1.187-2.571,1.187c-1.141,0-2.163-0.644-2.9-1.804c-0.712,0.134-1.392,0.167-1.856,0.167  c-0.284,0-0.457-0.011-0.457-0.011c-0.055,0.006-0.178,0.008-0.347-0.004c-0.021,0.003-0.039,0.019-0.061,0.02  c-0.015,0.001-0.03,0.009-0.046,0.009c-0.104,0-0.2-0.008-0.291-0.046c-1.159-0.175-3.397-0.838-5.188-3.323  c-0.122-0.169-0.168-0.321-0.127-0.526c0.041-0.204,0.165-0.196,0.343-0.305C55.656,57.392,57.633,57,59.58,57h0.009  c0.029,0,0.059-0.31,0.088-0.31c2.572,0,4.35,0.904,5.009,2.991c0.29-0.047,0.604-0.035,1.009,0.067  c0.293,0.073,0.56,0.165,0.817,0.272c0.55-2.317,2.444-3.636,5.34-3.636c1.822,0,3.625,0.528,4.603,1.053  c0.082,0.044,0.149,0.104,0.208,0.174c0.008-0.039,0.003-0.081,0.017-0.118c0.018-0.109,0.031-0.299,0.032-0.42  c0.007-0.777-0.303-1.452-0.947-2.062c-1.183-1.12-2.532-1.829-3.704-1.943c-2.674-0.263-5.411-0.881-7.314-3.601  c-0.087-0.124-0.261-0.334-0.451-0.354c-0.125-0.011-0.313,0.068-0.483,0.228c-0.367,0.344-0.7,0.72-1.053,1.118  c-0.646,0.73-1.326,1.477-2.257,2.074c-0.005,0.004-0.007,0.011-0.012,0.015c-0.021,0.019-0.048,0.025-0.07,0.041  c-0.061,0.037-0.112,0.08-0.175,0.116c-0.265,0.153-0.542,0.4-0.835,0.662c-0.526,0.469-1.122,1-1.905,1.214  c-2.696,0.735-4.827,2.117-6.517,4.226c-0.661,0.826-1.589,1.264-2.406,1.648c-0.572,0.27-1.117,0.526-1.53,0.884  c0.229,1.516,0.166,3.731,0.109,5.707c-0.01,0.324-0.018,0.634-0.025,0.931c0.884-0.229,1.743-0.419,2.586-0.547  c2.91-0.443,5.824-0.851,8.739-1.252c2.059-0.281,8.414-0.541,8.825-0.546c3.118-0.034,5.676,0.166,8.061,0.629  c1.18,0.229,3.928,1.226,7.134,2.577c-0.057-1.146-0.04-2.337-0.021-3.502C82.468,64.786,82.477,64.247,82.477,63.73z"/><path fill="white" d="M65.434,19.711l-0.096-0.006c-0.283-0.046-0.562-0.019-0.915,0.068c-0.046,0.011-0.111,0.018-0.184,0.021  c-0.063,0.692-0.157,1.697-0.269,2.875c-0.07,0.749-0.149,1.589-0.231,2.466c0.005,0.051,0.021,0.099,0.015,0.151  c-0.005,0.049-0.027,0.091-0.041,0.137c-0.159,1.707-0.327,3.535-0.468,5.147c0,0.015,0.007,0.028,0.006,0.044  c-0.001,0.021-0.013,0.038-0.015,0.059c-0.137,1.556-0.245,2.899-0.294,3.701c0.696-0.145,1.331-0.469,1.928-0.989  c0.291-0.255,0.636-0.362,0.913-0.448c0.084-0.026,0.167-0.051,0.243-0.082c0.235-0.096,0.505-0.064,0.713,0.081  c0.189,0.133,0.396,0.308,0.615,0.494c0.167,0.142,0.35,0.291,0.532,0.43c-0.008-1.728-0.436-6.194-0.542-7.12  C67.172,26.144,65.913,21.771,65.434,19.711z"/><path fill="white" d="M67.66,19.734c-0.053,0.006-0.111,0.11-0.181,0.135C67.401,19.896,67.32,20,67.238,20c-0.015,0-0.03,0-0.045,0l-0.194-0.104  c0.353,1.437,0.973,3.615,1.387,5.075c0.694-0.14,1.703-0.442,2.67-0.742c-0.981-1.954-1.92-3.754-2.512-4.732  C68.298,19.618,68.008,19.693,67.66,19.734z"/>></svg>